# xmcd
#
# Track frame offsets:
#	150
#	31959
#	49639
#	78765
#	100926
#	120223
#	155355
#	173322
#	205070
#	231555
#	253501
#	280092
#	310859
#
# Disc length: 4522 seconds
#
# Revision: 1
# Processed by: cddbd v1.5.2PL0 Copyright (c) Steve Scherf et al.
# Submitted via: audiograbber 1.83.01
#
DISCID=9511a80d
DTITLE=Kim Massie - Attitude (Live)
DYEAR=2005
DGENRE=Blues
TTITLE0=Summertime
TTITLE1=Temptation
TTITLE2=What A Difference A Day Makes
TTITLE3=Fever A Clausen
TTITLE4=I Am A Woman
TTITLE5=Go Away Little Boy
TTITLE6=Dance With My Father
TTITLE7=Midnight Train To Georgia
TTITLE8=The Chair
TTITLE9=Last Two Dollars
TTITLE10=Peel Me A Grape
TTITLE11=Stormy Monday
TTITLE12=At Last
EXTD=
EXTT0=
EXTT1=
EXTT2=
EXTT3=
EXTT4=
EXTT5=
EXTT6=
EXTT7=
EXTT8=
EXTT9=
EXTT10=
EXTT11=
EXTT12=
PLAYORDER=
